<svg xmlns="http://www.w3.org/2000/svg" xmlns:xlink="http://www.w3.org/1999/xlink" width="40" zoomAndPan="magnify" viewBox="0 0 30 30.000001" height="40" preserveAspectRatio="xMidYMid meet" version="1.0"><defs><clipPath id="92f599c8ef"><path d="M 0.484375 3 L 21 3 L 21 26 L 0.484375 26 Z M 0.484375 3 " clip-rule="nonzero"/></clipPath><clipPath id="a882535a59"><path d="M 3 0 L 28.789062 0 L 28.789062 29.03125 L 3 29.03125 Z M 3 0 " clip-rule="nonzero"/></clipPath></defs><g clip-path="url(#92f599c8ef)"><path fill="#fb921c" d="M 18.90625 6.195312 C 19.070312 6.292969 19.230469 6.390625 19.386719 6.492188 C 14.875 4.203125 9.308594 5.820312 6.75 10.253906 C 5.105469 13.101562 5.105469 16.429688 6.40625 19.195312 C 9.15625 25.054688 16.519531 24.886719 18.722656 18.78125 C 20.003906 15.222656 17.640625 11.375 14.089844 10.214844 C 14.222656 10.242188 14.359375 10.277344 14.492188 10.3125 C 18.703125 11.441406 21.199219 15.769531 20.070312 19.976562 C 18.679688 25.175781 12.832031 27.363281 8.21875 24.703125 C 3.109375 21.753906 1.359375 15.21875 4.308594 10.109375 C 7.257812 4.996094 13.796875 3.246094 18.90625 6.195312 Z M 13.839844 16.445312 C 14.746094 16.203125 15.679688 16.742188 15.921875 17.648438 C 16.167969 18.554688 15.628906 19.488281 14.71875 19.734375 C 13.8125 19.976562 12.878906 19.4375 12.636719 18.53125 C 12.390625 17.621094 12.933594 16.6875 13.839844 16.445312 Z M 2.140625 3.734375 C 3.328125 3.414062 4.546875 4.117188 4.863281 5.308594 C 5.183594 6.492188 4.476562 7.714844 3.289062 8.03125 C 2.101562 8.351562 0.882812 7.644531 0.566406 6.457031 C 0.246094 5.273438 0.953125 4.050781 2.140625 3.734375 Z M 2.140625 3.734375 " fill-opacity="1" fill-rule="evenodd"/></g><g clip-path="url(#a882535a59)"><path fill="#0080a5" d="M 8.871094 4.78125 C 8.671875 4.894531 8.476562 5.015625 8.285156 5.140625 C 13.773438 2.355469 20.542969 4.324219 23.65625 9.714844 C 25.792969 13.417969 25.667969 17.808594 23.710938 21.28125 L 24.308594 24.933594 L 21.222656 24.339844 C 20.664062 24.824219 20.050781 25.265625 19.382812 25.652344 C 13.992188 28.765625 7.148438 27.082031 3.785156 21.929688 C 3.890625 22.132812 3.996094 22.332031 4.113281 22.53125 C 7.703125 28.746094 15.648438 30.878906 21.863281 27.289062 C 22.035156 27.191406 22.199219 27.089844 22.363281 26.984375 L 27.171875 27.796875 L 26.359375 22.96875 C 28.84375 19.019531 29.117188 13.859375 26.621094 9.539062 C 23.03125 3.324219 15.085938 1.191406 8.871094 4.78125 Z M 25.15625 0.0898438 C 26.5625 -0.285156 28.007812 0.546875 28.386719 1.957031 C 28.765625 3.363281 27.929688 4.808594 26.523438 5.1875 C 25.113281 5.566406 23.667969 4.730469 23.289062 3.324219 C 22.914062 1.914062 23.75 0.46875 25.15625 0.0898438 Z M 25.15625 0.0898438 " fill-opacity="1" fill-rule="evenodd"/></g></svg>