<svg xmlns="http://www.w3.org/2000/svg" xmlns:xlink="http://www.w3.org/1999/xlink" width="100" zoomAndPan="magnify" viewBox="0 0 75 74.999997" height="100" preserveAspectRatio="xMidYMid meet" version="1.0"><defs><clipPath id="72806b4d6b"><path d="M 8 0 L 72 0 L 72 75 L 8 75 Z M 8 0 " clip-rule="nonzero"/></clipPath></defs><path fill="#fb921c" d="M 47.601562 16.007812 C 48.023438 16.25 48.4375 16.503906 48.84375 16.769531 C 37.1875 10.863281 22.808594 15.035156 16.195312 26.488281 C 11.953125 33.839844 11.949219 42.441406 15.304688 49.585938 C 22.417969 64.71875 41.433594 64.292969 47.125 48.515625 C 50.441406 39.328125 44.324219 29.390625 35.152344 26.390625 C 35.5 26.464844 35.851562 26.546875 36.195312 26.640625 C 47.070312 29.554688 53.527344 40.734375 50.613281 51.609375 C 47.011719 65.042969 31.902344 70.691406 19.996094 63.816406 C 6.792969 56.195312 2.269531 39.3125 9.890625 26.113281 C 17.511719 12.910156 34.398438 8.386719 47.597656 16.007812 Z M 34.511719 42.484375 C 36.855469 41.855469 39.265625 43.246094 39.894531 45.589844 C 40.523438 47.9375 39.132812 50.347656 36.785156 50.976562 C 34.441406 51.605469 32.03125 50.210938 31.402344 47.867188 C 30.773438 45.523438 32.164062 43.113281 34.511719 42.484375 Z M 4.285156 9.644531 C 7.351562 8.820312 10.503906 10.640625 11.324219 13.707031 C 12.148438 16.773438 10.328125 19.929688 7.257812 20.75 C 4.191406 21.574219 1.042969 19.75 0.21875 16.683594 C -0.601562 13.617188 1.214844 10.464844 4.285156 9.644531 Z M 4.285156 9.644531 " fill-opacity="1" fill-rule="evenodd"/><g clip-path="url(#72806b4d6b)"><path fill="#0080a5" d="M 21.671875 12.351562 C 21.160156 12.644531 20.65625 12.957031 20.164062 13.277344 C 34.339844 6.085938 51.824219 11.167969 59.867188 25.097656 C 65.394531 34.664062 65.070312 46 60.015625 54.976562 L 61.554688 64.410156 L 53.585938 62.875 C 52.140625 64.132812 50.554688 65.273438 48.835938 66.265625 C 34.902344 74.308594 17.222656 69.964844 8.539062 56.652344 C 8.804688 57.175781 9.085938 57.691406 9.382812 58.207031 C 18.65625 74.265625 39.1875 79.765625 55.242188 70.496094 C 55.679688 70.246094 56.105469 69.980469 56.53125 69.714844 L 68.953125 71.8125 L 66.851562 59.339844 C 73.277344 49.136719 73.976562 35.804688 67.53125 24.640625 C 58.257812 8.582031 37.726562 3.082031 21.671875 12.351562 Z M 63.746094 0.234375 C 67.378906 -0.738281 71.117188 1.417969 72.09375 5.054688 C 73.066406 8.6875 70.90625 12.425781 67.273438 13.402344 C 63.636719 14.375 59.902344 12.21875 58.925781 8.582031 C 57.949219 4.945312 60.109375 1.210938 63.746094 0.234375 Z M 63.746094 0.234375 " fill-opacity="1" fill-rule="evenodd"/></g></svg>